<?xml version="1.0" encoding="UTF-8"?>
<svg version="1.1" xmlns="http://www.w3.org/2000/svg" width="2133" height="2133">
<path d="M0 0 C22.97513484 11.97432875 44.58382902 27.09707677 63.55859375 44.74609375 C65.64051229 46.66812095 67.76425897 48.49625955 69.9375 50.3125 C84.54593655 63.10603913 96.39003498 79.2178179 106 96 C106.4942749 96.84715576 106.4942749 96.84715576 106.99853516 97.71142578 C132.85079128 142.30687668 132.45466154 195.52930944 120.01318359 244.28808594 C107.09744065 291.60638851 84.68497936 336.23556817 59.66259766 378.20996094 C58.10408857 380.82532684 56.55658679 383.44687382 55.01171875 386.0703125 C34.46291066 420.82197323 11.35017166 454.03728528 -11.75 487.125 C-19.12101629 497.70982452 -26.42014849 508.34039973 -33.65594482 519.01806641 C-35.20568291 521.30329846 -36.75736501 523.58720499 -38.30908203 525.87109375 C-41.48026223 530.53961488 -44.6462416 535.21163495 -47.8097229 539.88537598 C-49.08291946 541.76512267 -50.35743253 543.64397847 -51.63339233 545.52185059 C-59.32514263 556.84584098 -66.75202281 568.26943725 -73.79772949 580.0065918 C-75.59497881 582.98649649 -77.43080202 585.94151292 -79.265625 588.8984375 C-120.12798907 655.14012122 -158.76539215 735.05423462 -140.23071289 814.70629883 C-132.91277639 844.0167914 -118.05607523 869.50280588 -97 891 C-95.86304688 892.21236328 -95.86304688 892.21236328 -94.703125 893.44921875 C-85.15347457 903.43452841 -73.92563692 911.12571221 -62 918 C-60.88496094 918.65742187 -59.76992188 919.31484375 -58.62109375 919.9921875 C-43.05145618 928.90831904 -25.61842217 934.76701953 -8 938 C-6.7934375 938.22429688 -5.586875 938.44859375 -4.34375 938.6796875 C28.51260654 943.71858252 62.22299728 938.64886297 92 924 C92.94649414 923.54004639 92.94649414 923.54004639 93.91210938 923.07080078 C109.26672679 915.52262112 122.31506532 905.40000098 135 894 C135.67546875 893.39800781 136.3509375 892.79601563 137.046875 892.17578125 C167.8949229 863.01703121 183.88203422 819.13743409 189 778 C189.19722656 776.46279297 189.19722656 776.46279297 189.3984375 774.89453125 C193.62729973 734.37745936 184.56141497 692.57628446 165 657 C164.48034668 656.05350586 164.48034668 656.05350586 163.95019531 655.08789062 C155.83197077 640.51519479 145.4644286 628.04646883 134 616 C133.34773438 615.29488281 132.69546875 614.58976562 132.0234375 613.86328125 C123.27568647 604.68744879 112.77360425 597.26771029 102.1328125 590.4609375 C101.42898438 589.97882812 100.72515625 589.49671875 100 589 C100 588.67 100 588.34 100 588 C108.51008431 587.77552027 116.64735445 588.37451333 125.0625 589.625 C126.27349365 589.80393799 127.4844873 589.98287598 128.73217773 590.16723633 C158.43400221 594.73038191 186.99196052 602.68531749 214 616 C214.66354492 616.32291016 215.32708984 616.64582031 216.01074219 616.97851562 C251.67048904 634.50895606 283.60758193 663.21139352 303 698 C303.41991211 698.74701172 303.83982422 699.49402344 304.27246094 700.26367188 C315.37839521 720.2054843 323.16242532 740.68532282 328 763 C328.21172852 763.95890137 328.42345703 764.91780273 328.64160156 765.90576172 C334.8198209 795.32328943 334.91503274 829.53827528 329 859 C328.81195801 860.00772461 328.62391602 861.01544922 328.43017578 862.05371094 C319.38115143 909.98402451 298.50042135 955.75774726 267.33007812 993.39355469 C266.44758113 994.45941927 265.57118982 995.53037049 264.70117188 996.60644531 C258.0770696 1004.79525729 250.85847511 1012.34245302 243.4375 1019.8125 C242.57527832 1020.68398682 241.71305664 1021.55547363 240.82470703 1022.45336914 C234.85860793 1028.39066015 228.58893808 1033.7682733 222 1039 C220.83106487 1039.95324326 219.66293208 1040.9074725 218.49609375 1041.86328125 C151.01314174 1095.90135393 58.41695961 1120.80724852 -27.22729492 1111.41040039 C-89.42013846 1103.9309069 -147.49637419 1079.60033798 -196 1040 C-196.78938965 1039.35925537 -196.78938965 1039.35925537 -197.59472656 1038.70556641 C-204.59292441 1032.99857308 -211.27878774 1026.97844681 -217.875 1020.8125 C-218.57665283 1020.15934814 -219.27830566 1019.50619629 -220.0012207 1018.83325195 C-224.0637155 1014.99776614 -227.83666453 1011.02164886 -231.47216797 1006.77954102 C-233.2989244 1004.65182807 -235.21118695 1002.61190709 -237.125 1000.5625 C-257.65400204 977.76413549 -273.3296495 951.30757795 -287 924 C-287.40750488 923.18998535 -287.81500977 922.3799707 -288.23486328 921.54541016 C-309.98125463 877.69065168 -319.50829516 827.16770397 -319.3125 778.5 C-319.31067719 777.54877258 -319.30885437 776.59754517 -319.30697632 775.61749268 C-319.19738136 741.4174406 -313.99790186 708.70993029 -304 676 C-303.72961914 675.11038574 -303.45923828 674.22077148 -303.18066406 673.30419922 C-296.12021457 650.39014557 -286.45883161 628.39819078 -276.27587891 606.72363281 C-275.08107412 604.17306983 -273.90324094 601.61543843 -272.73046875 599.0546875 C-267.50240644 587.71783726 -261.63244079 576.79633002 -255.58251953 565.87988281 C-253.98952701 562.98094117 -252.42590722 560.06801551 -250.87109375 557.1484375 C-243.61197204 543.53492497 -235.91081803 530.25213437 -227.87744141 517.08154297 C-226.01793304 514.02943444 -224.16967387 510.97077866 -222.32421875 507.91015625 C-221.13312821 505.93991328 -219.94173414 503.96985375 -218.75 502 C-218.23252197 501.14204834 -217.71504395 500.28409668 -217.18188477 499.40014648 C-208.02665819 484.3347457 -198.19275992 469.68043797 -188.49414062 454.96240234 C-186.63239178 452.13622091 -184.77319624 449.30837092 -182.9140625 446.48046875 C-175.49873588 435.21582055 -167.9758499 424.03282434 -160.32598877 412.92614746 C-158.63618784 410.47152202 -156.95415224 408.01163471 -155.2734375 405.55078125 C-147.69141475 394.46310552 -140.09299302 383.38681804 -132.46875 372.328125 C-120.51333995 354.97767431 -108.58853396 337.59833345 -97 320 C-96.4622998 319.18450684 -95.92459961 318.36901367 -95.37060547 317.52880859 C-36.60969718 228.28376581 7.8817672 134.7992719 1 25.1875 C0.85559097 22.86072159 0.71239268 20.53388905 0.57202148 18.2068634 C0.48545618 16.77416638 0.39660997 15.34160439 0.30493164 13.90922546 C0.02216904 9.26145739 -0.03634338 4.65357499 0 0 Z " fill="#EC1E24" transform="translate(1060,510)"/>
</svg>
